<svg width="149" height="32" viewBox="0 0 149 32" fill="none" xmlns="http://www.w3.org/2000/svg">
<path d="M50.2912 23H52.6626V18.206H55.0788L57.6484 23H60.2947L57.4631 17.8097C59.0036 17.1896 59.8153 15.8729 59.8153 14.0959C59.8153 11.5966 58.2045 9.90909 55.2003 9.90909H50.2912V23ZM52.6626 16.2372V11.8906H54.8359C56.6065 11.8906 57.3991 12.7024 57.3991 14.0959C57.3991 15.4893 56.6065 16.2372 54.8487 16.2372H52.6626ZM61.896 23H64.2099V13.1818H61.896V23ZM63.0593 11.7884C63.7944 11.7884 64.3952 11.2259 64.3952 10.5355C64.3952 9.83878 63.7944 9.27628 63.0593 9.27628C62.3178 9.27628 61.717 9.83878 61.717 10.5355C61.717 11.2259 62.3178 11.7884 63.0593 11.7884ZM70.8592 26.848C73.5119 26.848 75.4679 25.6335 75.4679 23.1598V13.1818H73.1859V14.8054H73.0581C72.7065 14.0959 71.9714 13.054 70.2392 13.054C67.97 13.054 66.1866 14.831 66.1866 18.0589C66.1866 21.2614 67.97 22.8594 70.2328 22.8594C71.9139 22.8594 72.7001 21.9581 73.0581 21.2358H73.1731V23.0959C73.1731 24.5021 72.2143 25.0966 70.8976 25.0966C69.5041 25.0966 68.8904 24.4382 68.6092 23.9013L66.5254 24.4062C66.9473 25.7422 68.3599 26.848 70.8592 26.848ZM70.8784 21.044C69.3507 21.044 68.5453 19.8551 68.5453 18.0462C68.5453 16.2628 69.3379 14.9524 70.8784 14.9524C72.3677 14.9524 73.1859 16.1861 73.1859 18.0462C73.1859 19.919 72.3549 21.044 70.8784 21.044ZM80.1532 17.2472C80.1532 15.8281 81.0353 15.0099 82.2754 15.0099C83.4899 15.0099 84.2058 15.7834 84.2058 17.1065V23H86.5197V16.7486C86.5197 14.3771 85.1774 13.054 83.1383 13.054C81.6298 13.054 80.671 13.7379 80.2172 14.8501H80.1021V9.90909H77.8393V23H80.1532V17.2472ZM93.7811 13.1818H91.8443V10.8295H89.5304V13.1818H88.1369V14.9716H89.5304V20.4304C89.5176 22.2777 90.8599 23.1854 92.5985 23.1342C93.2569 23.1151 93.7108 22.9872 93.9601 22.9041L93.5701 21.0952C93.4423 21.1271 93.1802 21.1847 92.8926 21.1847C92.3109 21.1847 91.8443 20.9801 91.8443 20.0469V14.9716H93.7811V13.1818ZM112.003 14C111.575 11.5902 109.606 9.73011 106.819 9.73011C103.515 9.73011 101.162 12.3572 101.162 16.4545C101.162 20.5518 103.515 23.179 106.819 23.179C109.606 23.179 111.575 21.3125 112.003 18.9091H110.801C110.437 20.7053 108.871 22.054 106.819 22.054C104.339 22.054 102.319 20.0916 102.319 16.4545C102.319 12.8303 104.339 10.8551 106.819 10.8551C108.871 10.8551 110.437 12.2102 110.801 14H112.003ZM115.712 9.90909H114.574V23H115.712V9.90909ZM122.692 23.2045C124.661 23.2045 125.984 22.1371 126.432 20.9034L125.351 20.5518C124.974 21.4339 124.086 22.1626 122.692 22.1626C120.685 22.1626 119.413 20.6989 119.362 18.4297H126.675V17.8672C126.675 14.5881 124.648 13.0476 122.52 13.0476C119.976 13.0476 118.218 15.1761 118.218 18.1484C118.218 21.1271 119.944 23.2045 122.692 23.2045ZM119.368 17.4261C119.49 15.598 120.724 14.0831 122.52 14.0831C124.278 14.0831 125.511 15.5341 125.511 17.4261H119.368ZM131.924 23.2237C133.56 23.2237 134.558 22.3161 134.967 21.4467H135.037V23H136.175V16.3331C136.175 13.6996 134.193 13.0476 132.691 13.0476C131.189 13.0476 129.642 13.642 128.977 15.2464L130.058 15.6364C130.415 14.7926 131.304 14.0703 132.723 14.0703C134.212 14.0703 135.037 14.8885 135.037 16.2308V16.4609C135.037 17.2024 134.116 17.2152 132.467 17.4197C130.249 17.6946 128.696 18.3146 128.696 20.2578C128.696 22.1499 130.141 23.2237 131.924 23.2237ZM132.077 22.1818C130.793 22.1818 129.834 21.4979 129.834 20.3089C129.834 19.12 130.805 18.6214 132.467 18.4169C133.273 18.321 134.705 18.142 135.037 17.8161V19.2351C135.037 20.8459 133.893 22.1818 132.077 22.1818ZM140.339 16.8636C140.339 15.1506 141.464 14.0959 143.011 14.0959C144.52 14.0959 145.491 15.1058 145.491 16.7102V23H146.629V16.6399C146.629 14.3132 145.28 13.054 143.299 13.054C141.86 13.054 140.87 13.7188 140.409 14.7223H140.307V13.1818H139.201V23H140.339V16.8636Z" fill="#242936"/>
<path d="M97.2759 23.1854C98.1516 23.1854 98.9251 22.4439 98.9379 21.5234C98.9251 20.6158 98.1516 19.8807 97.2759 19.8807C96.3555 19.8807 95.6012 20.6158 95.614 21.5234C95.6012 22.4439 96.3555 23.1854 97.2759 23.1854Z" fill="#0496FF"/>
<path d="M10.2858 26.8569C10.2858 26.963 10.2562 27.0671 10.2005 27.1573C10.1447 27.2476 10.0648 27.3206 9.96994 27.3681L7.0927 28.8067L5.65409 31.6839C5.60664 31.7788 5.53368 31.8587 5.4434 31.9145C5.35312 31.9703 5.24908 31.9999 5.14295 31.9999C5.03681 31.9999 4.93277 31.9703 4.84249 31.9145C4.75221 31.8587 4.67926 31.7788 4.63181 31.6839L3.19319 28.8067L0.315959 27.3681C0.22102 27.3206 0.141172 27.2476 0.0853661 27.1574C0.0295597 27.0671 0 26.963 0 26.8569C0 26.7508 0.0295597 26.6467 0.0853661 26.5565C0.141172 26.4662 0.22102 26.3932 0.315959 26.3458L3.19319 24.9072L4.63181 22.0299C4.68455 21.9414 4.75939 21.8681 4.84899 21.8172C4.9386 21.7662 5.03989 21.7395 5.14295 21.7395C5.24601 21.7395 5.3473 21.7662 5.4369 21.8172C5.5265 21.8681 5.60134 21.9414 5.65409 22.0299L7.0927 24.9072L9.96994 26.3458C10.0648 26.3932 10.1447 26.4662 10.2005 26.5565C10.2562 26.6468 10.2858 26.7508 10.2858 26.8569ZM31.684 21.7744L27.2828 19.5741L25.0825 15.1728C25.0298 15.0843 24.9549 15.011 24.8653 14.9601C24.7757 14.9091 24.6744 14.8824 24.5714 14.8824C24.4683 14.8824 24.367 14.9091 24.2774 14.9601C24.1878 15.011 24.113 15.0843 24.0602 15.1728L21.8599 19.5741L17.4587 21.7744C17.3637 21.8218 17.2839 21.8948 17.2281 21.9851C17.1723 22.0753 17.1427 22.1794 17.1427 22.2855C17.1427 22.3917 17.1723 22.4957 17.2281 22.586C17.2839 22.6763 17.3637 22.7492 17.4587 22.7967L21.8599 24.997L24.0602 29.3982C24.1077 29.4931 24.1806 29.573 24.2709 29.6288C24.3612 29.6846 24.4652 29.7142 24.5714 29.7142C24.6775 29.7142 24.7815 29.6846 24.8718 29.6288C24.9621 29.573 25.035 29.4931 25.0825 29.3982L27.2828 24.997L31.684 22.7967C31.779 22.7492 31.8588 22.6763 31.9146 22.586C31.9704 22.4957 32 22.3917 32 22.2855C32 22.1794 31.9704 22.0753 31.9146 21.9851C31.8588 21.8948 31.779 21.8218 31.684 21.7744ZM21.7142 10.8443C21.7143 10.7381 21.6848 10.634 21.629 10.5436C21.5732 10.4532 21.4934 10.3802 21.3984 10.3326L14.7115 6.98548L11.3683 0.290791C11.3156 0.202168 11.2408 0.128765 11.1512 0.0777854C11.0616 0.0268054 10.9603 0 10.8572 0C10.7541 0 10.6528 0.0268054 10.5632 0.0777854C10.4735 0.128765 10.3987 0.202168 10.346 0.290791L7.00287 6.98548L0.315959 10.3326C0.221034 10.3802 0.141224 10.4533 0.0854514 10.5437C0.0296784 10.634 0.000141006 10.7381 0.000141006 10.8443C0.000141006 10.9505 0.0296784 11.0546 0.0854514 11.145C0.141224 11.2354 0.221034 11.3085 0.315959 11.3561L7.00287 14.7032L10.346 21.3979C10.3935 21.4928 10.4665 21.5727 10.5567 21.6285C10.647 21.6843 10.751 21.7138 10.8572 21.7138C10.9633 21.7138 11.0674 21.6843 11.1576 21.6285C11.2479 21.5727 11.3209 21.4928 11.3683 21.3979L14.7115 14.7032L21.3984 11.3561C21.4934 11.3085 21.5732 11.2354 21.629 11.145C21.6848 11.0546 21.7143 10.9505 21.7142 10.8443Z" fill="#45B1FF"/>
</svg>
